<!--
  - The MIT License (MIT)
  -
  - Copyright (c) 2015-2025 Elior "Mallowigi" Boukhobza
  -
  - Permission is hereby granted, free of charge, to any person obtaining a copy
  - of this software and associated documentation files (the "Software"), to deal
  - in the Software without restriction, including without limitation the rights
  - to use, copy, modify, merge, publish, distribute, sublicense, and/or sell
  - copies of the Software, and to permit persons to whom the Software is
  - furnished to do so, subject to the following conditions:
  -
  - The above copyright notice and this permission notice shall be included in all
  - copies or substantial portions of the Software.
  -
  - THE SOFTWARE IS PROVIDED "AS IS", WITHOUT WARRANTY OF ANY KIND, EXPRESS OR
  - IMPLIED, INCLUDING BUT NOT LIMITED TO THE WARRANTIES OF MERCHANTABILITY,
  - FITNESS FOR A PARTICULAR PURPOSE AND NONINFRINGEMENT. IN NO EVENT SHALL THE
  - AUTHORS OR COPYRIGHT HOLDERS BE LIABLE FOR ANY CLAIM, DAMAGES OR OTHER
  - LIABILITY, WHETHER IN AN ACTION OF CONTRACT, TORT OR OTHERWISE, ARISING FROM,
  - OUT OF OR IN CONNECTION WITH THE SOFTWARE OR THE USE OR OTHER DEALINGS IN THE
  - SOFTWARE.
  -
  -->

<svg xmlns="http://www.w3.org/2000/svg" height="16px" viewBox="0 -960 960 960" width="16px" fill="#C792EA">
  <path
    d="M480-120q-17 0-28.5-11.5T440-160v-224L282-225q-12 12-28.5 12T225-225q-12-12-12-28.5t12-28.5l159-158H160q-17 0-28.5-11.5T120-480q0-17 11.5-28.5T160-520h224L225-678q-12-12-12-28.5t12-28.5q12-12 28.5-12t28.5 12l158 159v-224q0-17 11.5-28.5T480-840q17 0 28.5 11.5T520-800v224l158-159q12-12 28.5-12t28.5 12q12 12 12 28.5T735-678L576-520h224q17 0 28.5 11.5T840-480q0 17-11.5 28.5T800-440H576l159 158q12 12 12 28.5T735-225q-12 12-28.5 12T678-225L520-384v224q0 17-11.5 28.5T480-120Z"/>
</svg>
