<!--
  - The MIT License (MIT)
  -
  - Copyright (c) 2015-2025 Elior "Mallowigi" Boukhobza
  -
  - Permission is hereby granted, free of charge, to any person obtaining a copy
  - of this software and associated documentation files (the "Software"), to deal
  - in the Software without restriction, including without limitation the rights
  - to use, copy, modify, merge, publish, distribute, sublicense, and/or sell
  - copies of the Software, and to permit persons to whom the Software is
  - furnished to do so, subject to the following conditions:
  -
  - The above copyright notice and this permission notice shall be included in all
  - copies or substantial portions of the Software.
  -
  - THE SOFTWARE IS PROVIDED "AS IS", WITHOUT WARRANTY OF ANY KIND, EXPRESS OR
  - IMPLIED, INCLUDING BUT NOT LIMITED TO THE WARRANTIES OF MERCHANTABILITY,
  - FITNESS FOR A PARTICULAR PURPOSE AND NONINFRINGEMENT. IN NO EVENT SHALL THE
  - AUTHORS OR COPYRIGHT HOLDERS BE LIABLE FOR ANY CLAIM, DAMAGES OR OTHER
  - LIABILITY, WHETHER IN AN ACTION OF CONTRACT, TORT OR OTHERWISE, ARISING FROM,
  - OUT OF OR IN CONNECTION WITH THE SOFTWARE OR THE USE OR OTHER DEALINGS IN THE
  - SOFTWARE.
  -
  -->

<svg xmlns="http://www.w3.org/2000/svg" height="16px" viewBox="0 -960 960 960" width="16px" fill="#81D4FA">
  <path
    d="M80-760v-80q0-33 23.5-56.5T160-920h80q17 0 28.5 11.5T280-880q0 17-11.5 28.5T240-840h-80v80q0 17-11.5 28.5T120-720q-17 0-28.5-11.5T80-760Zm720 0v-80h-80q-17 0-28.5-11.5T680-880q0-17 11.5-28.5T720-920h80q33 0 56.5 23.5T880-840v80q0 17-11.5 28.5T840-720q-17 0-28.5-11.5T800-760ZM80-120v-80q0-17 11.5-28.5T120-240q17 0 28.5 11.5T160-200v80h80q17 0 28.5 11.5T280-80q0 17-11.5 28.5T240-40h-80q-33 0-56.5-23.5T80-120Zm720 80h-80q-17 0-28.5-11.5T680-80q0-17 11.5-28.5T720-120h80v-80q0-17 11.5-28.5T840-240q17 0 28.5 11.5T880-200v80q0 33-23.5 56.5T800-40ZM280-240h400v-480H280v480Zm0 80q-33 0-56.5-23.5T200-240v-480q0-33 23.5-56.5T280-800h400q33 0 56.5 23.5T760-720v480q0 33-23.5 56.5T680-160H280Zm120-400h160q17 0 28.5-11.5T600-600q0-17-11.5-28.5T560-640H400q-17 0-28.5 11.5T360-600q0 17 11.5 28.5T400-560Zm0 120h160q17 0 28.5-11.5T600-480q0-17-11.5-28.5T560-520H400q-17 0-28.5 11.5T360-480q0 17 11.5 28.5T400-440Zm0 120h160q17 0 28.5-11.5T600-360q0-17-11.5-28.5T560-400H400q-17 0-28.5 11.5T360-360q0 17 11.5 28.5T400-320Zm-120 80v-480 480Z"/>
</svg>
